<svg id="svg" version="1.1" viewBox="0 0 300 300" width="300" height="300" xmlns="http://www.w3.org/2000/svg"><svg xmlns="http://www.w3.org/2000/svg"><defs><clipPath id="clip-1"><rect x="0" y="0" transform="scale(0.14648,0.14648)" width="2048" height="2048" fill="none"/></clipPath><linearGradient x1="162.15381" y1="147.87012" x2="165.7793" y2="209.9209" gradientUnits="userSpaceOnUse" id="color-1"><stop offset="0" stop-color="#6c5af2"/><stop offset="1" stop-color="#7f76ff"/></linearGradient><linearGradient x1="150.85986" y1="167.69238" x2="149.96777" y2="147.73975" gradientUnits="userSpaceOnUse" id="color-2"><stop offset="0" stop-color="#01092d"/><stop offset="1" stop-color="#122452"/></linearGradient><linearGradient x1="102.7604" y1="143.61108" x2="109.94019" y2="145.08442" gradientUnits="userSpaceOnUse" id="color-3"><stop offset="0" stop-color="#1f5ca8"/><stop offset="1" stop-color="#3389ea"/></linearGradient><linearGradient x1="200.10059" y1="143.4356" x2="190.021" y2="144.64248" gradientUnits="userSpaceOnUse" id="color-4"><stop offset="0" stop-color="#19519c"/><stop offset="1" stop-color="#388def"/></linearGradient><linearGradient x1="207.20801" y1="141.31289" x2="199.93945" y2="142.76543" gradientUnits="userSpaceOnUse" id="color-5"><stop offset="0" stop-color="#081744"/><stop offset="1" stop-color="#1c529c"/></linearGradient></defs><g clip-path="url(#clip-1)" fill="none" fill-rule="nonzero" stroke="none" stroke-width="1" stroke-linecap="butt" stroke-linejoin="miter" stroke-miterlimit="10" stroke-dasharray="" stroke-dashoffset="0" font-family="none" font-weight="none" font-size="none" text-anchor="none" style="mix-blend-mode: normal"><path d="M0,0h300v300h-300z" fill="#071235"/><path d="M146.71875,142.63125c1.42676,-0.92783 2.65869,-1.44976 4.43555,-1.05996c1.30664,0.277 2.44629,1.06934 3.16113,2.19756c0.5625,0.88608 0.66064,1.50542 0.81885,2.49917c1.0752,0.01714 2.15039,0.04175 3.22559,0.07383l4.62305,-0.01875c-0.44238,1.027 -0.67236,1.06362 -1.00928,1.71987c3.49951,-0.36328 8.81836,-0.30762 12.5874,-0.50537c5.2749,-0.27686 9.96387,-1.06099 15.02051,-1.46895c-2.18848,3.93867 -4.62158,7.97139 -6.89355,11.88691c-4.95703,8.54004 -9.87012,17.10498 -14.73779,25.69629c-3.38232,6.04541 -6.80859,12.06738 -10.27881,18.06152c-1.55859,2.71143 -3.20947,5.69678 -4.9248,8.30859c-0.42041,0.63867 -1.5249,1.05029 -2.24414,1.27588c-0.70898,-0.20654 -1.64941,-0.44678 -2.11084,-1.03418c-1.33154,-1.69629 -2.63057,-4.00781 -3.73975,-5.87695l-7.1896,-12.33398l-26.88809,-46.00049l-0.06973,-0.03193c-0.26104,-0.66211 -0.5748,-1.30034 -0.87832,-1.94458c5.69883,0.9876 11.68242,1.48081 17.46182,1.80029c3.07617,0.16992 6.88345,0.4021 9.91772,0.29136l0.10312,0.05391c0.37603,0.68203 0.61611,1.24307 1.19546,1.75723c0.66123,0.01904 1.45327,0.01904 2.10117,0.06299l1.16558,0.01904c0.2959,-0.05273 0.5915,-0.10547 0.88682,-0.15967c0.17637,-0.48926 0.07119,-0.80713 0.12407,-1.32422l0.02798,-0.26191c0.24214,-0.00117 1.78755,-0.00806 1.84614,-0.05039c0.86748,-0.62783 0.78398,-3.38071 2.26274,-3.63311z" fill="url(#color-1)"/><path d="M146.71875,142.63125c1.42676,-0.92783 2.65869,-1.44976 4.43555,-1.05996c1.30664,0.277 2.44629,1.06934 3.16113,2.19756c0.5625,0.88608 0.66064,1.50542 0.81885,2.49917c1.0752,0.01714 2.15039,0.04175 3.22559,0.07383l4.62305,-0.01875c-0.44238,1.027 -0.67236,1.06362 -1.00928,1.71987l-0.08789,0.06299c-1.26416,2.48584 -3.24316,5.66895 -4.69922,8.16504c-2.37744,4.07959 -4.72998,8.17383 -7.05762,12.28125c-3.74194,7.63184 -8.76987,15.77783 -12.66665,23.50049l-26.88809,-46.00049l-0.06973,-0.03193c-0.26104,-0.66211 -0.5748,-1.30034 -0.87832,-1.94458c5.69883,0.9876 11.68242,1.48081 17.46182,1.80029c3.07617,0.16992 6.88345,0.4021 9.91772,0.29136l0.10312,0.05391c0.37603,0.68203 0.61611,1.24307 1.19546,1.75723c0.66123,0.01904 1.45327,0.01904 2.10117,0.06299l1.16558,0.01904c0.2959,-0.05273 0.5915,-0.10547 0.88682,-0.15967c0.17637,-0.48926 0.07119,-0.80713 0.12407,-1.32422l0.02798,-0.26191c0.24214,-0.00117 1.78755,-0.00806 1.84614,-0.05039c0.86748,-0.62783 0.78398,-3.38071 2.26274,-3.63311z" fill="#0469f2"/><path d="M146.71875,142.63125c1.42676,-0.92783 2.65869,-1.44976 4.43555,-1.05996c1.30664,0.277 2.44629,1.06934 3.16113,2.19756c0.5625,0.88608 0.66064,1.50542 0.81885,2.49917c1.0752,0.01714 2.15039,0.04175 3.22559,0.07383l4.62305,-0.01875c-0.44238,1.027 -0.67236,1.06362 -1.00928,1.71987l-0.08789,0.06299c-1.26416,2.48584 -3.24316,5.66895 -4.69922,8.16504c-2.37744,4.07959 -4.72998,8.17383 -7.05762,12.28125c-4.04722,-6.81299 -8.05913,-13.64795 -12.03501,-20.50195l2.31152,-0.00879l1.16558,0.01904c0.2959,-0.05273 0.5915,-0.10547 0.88682,-0.15967c0.17637,-0.48926 0.07119,-0.80713 0.12407,-1.32422l0.02798,-0.26191c0.24214,-0.00117 1.78755,-0.00806 1.84614,-0.05039c0.86748,-0.62783 0.78398,-3.38071 2.26274,-3.63311z" fill="url(#color-2)"/><path d="M146.71875,142.63125c1.42676,-0.92783 2.65869,-1.44976 4.43555,-1.05996c1.30664,0.277 2.44629,1.06934 3.16113,2.19756c0.5625,0.88608 0.66064,1.50542 0.81885,2.49917c-0.09229,0.56792 -0.1875,1.31938 -0.35303,1.85552c-0.41748,1.0752 -1.27441,2.0376 -2.28955,2.58691c-1.22461,0.6709 -2.6748,0.7998 -3.99902,0.35742c-1.6377,-0.54492 -2.43882,-1.54541 -3.18281,-2.99854c-1.24629,0.01465 -2.49272,0.01172 -3.73887,-0.00879c0.2959,-0.05273 0.5915,-0.10547 0.88682,-0.15967c0.17637,-0.48926 0.07119,-0.80713 0.12407,-1.32422l0.02798,-0.26191c0.24214,-0.00117 1.78755,-0.00806 1.84614,-0.05039c0.86748,-0.62783 0.78398,-3.38071 2.26274,-3.63311z" fill="#fefefe"/><path d="M142.60986,146.31475c0.24214,-0.00117 1.78755,-0.00806 1.84614,-0.05039c0.86748,-0.62783 0.78398,-3.38071 2.26274,-3.63311c-1.52358,1.93022 -2.04185,2.95122 -1.40889,5.43809c-1.24629,0.01465 -2.49272,0.01172 -3.73887,-0.00879c0.2959,-0.05273 0.5915,-0.10547 0.88682,-0.15967c0.17637,-0.48926 0.07119,-0.80713 0.12407,-1.32422z" fill="#0469f2"/><path d="M155.13428,146.26802c1.0752,0.01714 2.15039,0.04175 3.22559,0.07383l4.62305,-0.01875c-0.44238,1.027 -0.67236,1.06362 -1.00928,1.71987l-0.08789,0.06299c-1.3374,-0.06006 -3.17285,-0.01025 -4.54395,-0.01025l-2.56055,0.02783c0.16553,-0.53613 0.26074,-1.2876 0.35303,-1.85552z" fill="#2c89f3"/><path d="M155.13428,146.26802c1.0752,0.01714 2.15039,0.04175 3.22559,0.07383c-0.80859,0.15718 -1.64941,0.5146 -1.42969,1.57661l0.41162,0.17725l-2.56055,0.02783c0.16553,-0.53613 0.26074,-1.2876 0.35303,-1.85552z" fill="#0469f2"/><path d="M109.62612,144.07573c5.69883,0.9876 11.68242,1.48081 17.46182,1.80029c3.07617,0.16992 6.88345,0.4021 9.91772,0.29136l0.10312,0.05391c0.37603,0.68203 0.61611,1.24307 1.19546,1.75723c-4.81333,-0.1626 -9.79453,-0.26807 -14.58926,-0.59912c-4.35146,-0.29883 -8.79785,-0.8877 -13.14082,-1.32715l-0.06973,-0.03193c-0.26104,-0.66211 -0.5748,-1.30034 -0.87832,-1.94458z" fill="#5fa9fe"/><path d="M163.11182,146.22656c1.36523,-2.82158 3.8042,-6.8105 5.43457,-9.5748l7.95703,-13.64414c4.22168,-7.33184 8.56641,-14.57432 12.479,-22.07754c0.25781,-0.49497 1.14404,-1.20571 1.68457,-1.38779c0.57275,-0.19292 1.27148,-0.31128 1.88232,-0.33369c3.94775,0.01348 7.89404,0.08979 11.84326,0.11118c2.49756,0.02168 4.91455,-0.09639 7.4165,-0.07295c1.68311,0.01567 3.40723,1.23589 2.64844,3.07178c-0.74561,1.80352 -1.93359,3.70708 -2.90039,5.43032l-4.80762,8.53843l-15.95508,27.7188l-0.07178,0.07983c-0.2666,0.45952 -0.91113,1.50674 -1.08105,1.94751l-0.06006,0.03516c-5.05664,0.40796 -9.74561,1.19209 -15.02051,1.46895c-3.76904,0.19775 -9.08789,0.14209 -12.5874,0.50537c0.33691,-0.65625 0.56689,-0.69287 1.00928,-1.71987z" fill="#7650f4"/><path d="M163.11182,146.22656c1.87354,0.10679 5.64404,-0.07881 7.56152,-0.19731c6.4292,-0.39727 13.7666,-0.7752 20.04932,-1.94326c-0.2666,0.45952 -0.91113,1.50674 -1.08105,1.94751l-0.06006,0.03516c-5.05664,0.40796 -9.74561,1.19209 -15.02051,1.46895c-3.76904,0.19775 -9.08789,0.14209 -12.5874,0.50537c0.33691,-0.65625 0.56689,-0.69287 1.00928,-1.71987z" fill="#5fa9fe"/><path d="M109.46558,144.029c-1.95029,-3.03779 -3.95273,-6.66753 -5.77837,-9.81504l-9.27144,-16.04048c-2.95811,-5.17969 -6.11382,-10.37373 -8.73267,-15.7415c-0.86426,-1.80029 0.84844,-3.25371 2.59746,-3.18618c2.76152,0.10679 5.26655,-0.04644 8.06001,0.06606c4.07505,0.16406 8.67451,-0.5625 12.65303,0.23848c0.52134,0.10488 1.33901,0.76538 1.67212,1.19399c2.92456,5.46548 6.06064,10.81567 9.2061,16.15752l11.59307,19.69043l3.36138,5.68154c0.6416,1.06978 1.76792,2.74951 2.17939,3.89355c-3.03428,0.11074 -6.84155,-0.12144 -9.91772,-0.29136c-5.77939,-0.31948 -11.76299,-0.8127 -17.46182,-1.80029z" fill="#0469f2"/><path d="M91.87939,120.51064c0.17578,0.18853 0.98481,1.70435 1.18154,2.05254c-0.82046,2.16621 -1.50454,4.38149 -2.04844,6.63311c-3.33604,13.64604 -1.16631,28.05615 6.04014,40.11621c8.56729,14.19434 21.67148,22.75488 37.54966,26.69531c0.38569,0.43066 1.47554,1.51611 1.27559,2.05664l-0.41177,-0.01758c-3.77402,-0.69434 -8.18467,-2.07275 -11.75493,-3.52881c-14.39253,-5.86377 -25.88115,-17.18115 -31.95791,-31.48535c-5.78379,-13.76074 -5.49331,-28.77744 0.12612,-42.52207z" fill="#2c89f3"/><path d="M208.21143,120.52002c1.00781,1.33608 2.79492,8.2251 3.20068,10.12881c3.03955,14.46372 0.18018,29.54209 -7.94385,41.88926c-8.67627,13.30225 -22.49854,22.02393 -37.94092,25.25244l-0.6123,0.07471l-0.18164,-0.18164c0.08057,-0.63721 0.78369,-1.3418 1.22607,-1.81494c2.95898,-0.77637 6.16406,-1.65527 9.00879,-2.76855c13.60254,-5.3291 25.12793,-15.86279 31.05762,-29.25439c5.80371,-13.08838 6.17432,-27.9438 1.02979,-41.30405z" fill="#2c89f3"/><path d="M147,84.58228c1.5,-0.18398 5.56348,-0.06636 7.10596,0.03691c12.44092,0.83394 23.32764,5.15024 33.31494,12.49629c-0.42187,0.42642 -0.79541,0.88008 -1.18506,1.33623c-10.69629,-7.41958 -20.29102,-11.45757 -33.48926,-12.06006c-14.14658,-0.44224 -27.71382,3.51372 -38.92119,12.32227l-1.2375,-1.36743c1.77891,-1.51201 3.97544,-2.89014 5.98154,-4.0938c9.00249,-5.40146 18.0104,-7.93857 28.43057,-8.67041z" fill="#2c89f3"/><path d="M97.74858,143.43955c-0.94233,-0.17593 -4.37651,-0.87583 -4.09087,-2.21147c1.07402,-0.84316 3.577,0.15615 4.72339,0.61567c0.47139,0.10063 2.93994,0.61494 3.23818,0.75542c2.60112,0.55195 5.21763,1.02876 7.84629,1.42983l0.16055,0.04673c0.30352,0.64424 0.61729,1.28247 0.87832,1.94458c-3.03252,-0.49014 -6.98013,-1.04575 -9.87993,-1.87324c-0.75498,-0.10137 -2.09663,-0.49907 -2.87593,-0.70752z" fill="#164184"/><path d="M100.62451,144.14707l0.00542,-0.13564c0.74912,-0.1689 1.43379,0.49966 2.10659,0.29971c0.2647,-1.16235 -0.43228,-1.32246 -1.26621,-1.56943l0.14897,-0.14253c2.60112,0.55195 5.21763,1.02876 7.84629,1.42983l0.16055,0.04673c0.30352,0.64424 0.61729,1.28247 0.87832,1.94458c-3.03252,-0.49014 -6.98013,-1.04575 -9.87993,-1.87324z" fill="url(#color-3)"/><path d="M97.74858,143.43955c-0.94233,-0.17593 -4.37651,-0.87583 -4.09087,-2.21147c1.07402,-0.84316 3.577,0.15615 4.72339,0.61567c-0.85957,-0.03472 -0.96021,-0.17344 -1.62144,0.20625c-0.14385,0.45981 -0.12568,0.21401 0.08643,0.76245c0.1979,0.14854 0.7812,0.5228 0.90249,0.6271z" fill="#0c2153"/><path d="M190.79443,144.00615c2.60449,-0.23364 6.38086,-1.07314 8.91504,-1.71328c0.22559,0.61392 0.38232,1.36465 0.93018,1.65366c-3.75732,0.8231 -7.18945,1.53193 -10.99805,2.08696c0.16992,-0.44077 0.81445,-1.48799 1.08105,-1.94751z" fill="url(#color-4)"/><path d="M199.70947,142.29287c1.32129,-0.26895 6.99463,-2.0707 7.65674,-1.85947c0.45557,1.14946 -0.67529,1.74009 -1.59521,2.05063c-1.66553,0.56235 -3.43213,1.01953 -5.13135,1.4625c-0.54785,-0.28901 -0.70459,-1.03975 -0.93018,-1.65366z" fill="url(#color-5)"/><path d="M137.10879,146.22129c1.88994,0.09082 3.60732,0.09976 5.50107,0.09346l-0.02798,0.26191c-0.05288,0.51709 0.05229,0.83496 -0.12407,1.32422c-0.29531,0.0542 -0.59092,0.10693 -0.88682,0.15967l-1.16558,-0.01904c-0.6479,-0.04395 -1.43994,-0.04395 -2.10117,-0.06299c-0.57935,-0.51416 -0.81943,-1.0752 -1.19546,-1.75723z" fill="#2c89f3"/></g></svg></svg>